<svg xmlns="http://www.w3.org/2000/svg" xmlns:xlink="http://www.w3.org/1999/xlink" zoomAndPan="magnify" preserveAspectRatio="xMidYMid meet" version="1.0" viewBox="50 130.45 270.62 114.98"><defs><g></g><clipPath id="id1"><path d="M 50 130 L 116 130 L 116 195 L 50 195 Z M 50 130 " clip-rule="nonzero"></path></clipPath><clipPath id="id2"><path d="M 44.125 143.695312 L 109.4375 117.15625 L 131.460938 171.355469 L 66.144531 197.894531 Z M 44.125 143.695312 " clip-rule="nonzero"></path></clipPath><clipPath id="id3"><path d="M 44.125 143.695312 L 109.4375 117.15625 L 131.460938 171.355469 L 66.144531 197.894531 Z M 44.125 143.695312 " clip-rule="nonzero"></path></clipPath></defs><g fill="rgb(0%, 0%, 0%)" fill-opacity="1"><g transform="translate(54.399453, 245.421092)"><g><path d="M 46.28125 -80.992188 C 37.042969 -80.992188 27.710938 -75.765625 24.632812 -66.339844 C 24.074219 -64.476562 23.699219 -62.703125 23.699219 -60.929688 C 23.699219 -52.8125 29.296875 -46.652344 34.617188 -40.121094 C 39.003906 -34.804688 43.109375 -30.417969 43.109375 -24.820312 C 43.109375 -17.261719 36.484375 -12.691406 30.417969 -12.691406 C 23.699219 -12.78125 18.382812 -16.703125 18.476562 -23.328125 C 18.566406 -23.792969 18.566406 -24.261719 18.566406 -24.632812 C 18.566406 -29.953125 15.023438 -32.378906 11.382812 -32.378906 C 7.652344 -32.378906 3.824219 -29.671875 3.824219 -24.445312 C 3.359375 -9.609375 16.421875 0 30.511719 0 C 45.441406 0 58.96875 -11.757812 58.96875 -26.125 C 58.96875 -35.832031 52.53125 -43.292969 46.839844 -49.640625 L 45.71875 -50.851562 C 42.175781 -54.679688 39.375 -58.878906 39.375 -62.328125 C 39.375 -66.433594 44.132812 -68.207031 46.28125 -68.113281 C 49.171875 -67.929688 51.226562 -65.875 52.8125 -62.703125 C 54.023438 -59.808594 56.449219 -58.503906 58.96875 -58.503906 C 62.328125 -58.503906 65.6875 -61.023438 65.6875 -65.316406 C 65.6875 -66.25 65.59375 -67.089844 65.316406 -68.113281 C 63.167969 -75.390625 55.796875 -80.992188 46.28125 -80.992188 Z M 46.28125 -80.992188 "></path></g></g></g><g fill="rgb(0%, 0%, 0%)" fill-opacity="1"><g transform="translate(117.846684, 245.421092)"><g><path d="M 33.3125 -26.3125 C 29.578125 -16.050781 23.699219 -11.105469 18.289062 -11.105469 C 14.929688 -11.105469 12.875 -13.15625 12.875 -15.675781 C 12.875 -16.328125 13.0625 -17.074219 13.25 -17.726562 L 22.394531 -43.761719 L 28.457031 -43.761719 C 33.21875 -43.761719 35.738281 -47.121094 35.738281 -50.199219 C 35.738281 -52.625 34.152344 -54.773438 30.605469 -54.773438 L 26.40625 -54.773438 L 32.65625 -72.964844 C 32.84375 -73.621094 32.9375 -74.179688 32.9375 -74.738281 C 32.9375 -78.191406 30.511719 -80.992188 26.40625 -80.992188 C 23.328125 -80.992188 20.714844 -78.84375 19.59375 -75.578125 L 12.128906 -54.773438 L 8.210938 -54.773438 C 3.171875 -54.773438 1.027344 -51.597656 1.027344 -48.613281 C 1.027344 -46 2.613281 -43.761719 5.132812 -43.761719 L 8.210938 -43.761719 L 0.375 -21.273438 L 0.375 -21.367188 C -0.375 -19.128906 -0.746094 -17.074219 -0.746094 -15.117188 C -0.746094 -5.597656 7.746094 0 17.355469 0 C 29.296875 0 39.28125 -8.863281 44.601562 -24.167969 C 44.789062 -24.820312 44.972656 -25.472656 44.972656 -26.03125 C 44.972656 -28.832031 42.269531 -30.605469 39.375 -30.605469 C 37.042969 -30.605469 34.429688 -29.296875 33.3125 -26.3125 Z M 33.3125 -26.3125 "></path></g></g></g><g fill="rgb(0%, 0%, 0%)" fill-opacity="1"><g transform="translate(148.35734, 245.421092)"><g><path d="M 53.464844 -27.058594 C 49.265625 -15.863281 44.132812 -11.105469 39.84375 -11.105469 C 38.164062 -11.105469 37.042969 -12.035156 37.042969 -13.34375 C 37.042969 -13.714844 37.136719 -14.277344 37.324219 -14.742188 L 48.425781 -45.90625 C 48.800781 -46.839844 48.894531 -47.679688 48.894531 -48.519531 C 48.894531 -52.253906 45.628906 -54.773438 42.269531 -54.773438 C 39.5625 -54.773438 36.761719 -53.183594 35.363281 -49.265625 L 25.101562 -20.621094 C 22.488281 -15.488281 18.476562 -11.105469 14.742188 -11.105469 C 13.34375 -11.105469 12.597656 -12.035156 12.597656 -13.4375 C 12.597656 -14.183594 12.78125 -15.394531 13.0625 -16.328125 L 23.234375 -45.441406 C 23.605469 -46.46875 23.792969 -47.398438 23.792969 -48.332031 C 23.792969 -52.160156 20.433594 -54.773438 16.980469 -54.773438 C 14.371094 -54.773438 11.570312 -53.183594 10.265625 -49.453125 L -0.652344 -17.636719 C -1.214844 -15.957031 -1.492188 -14.277344 -1.492188 -12.691406 C -1.492188 -5.132812 4.664062 0 12.503906 0 C 18.101562 0 22.300781 -2.707031 25.753906 -6.4375 C 28.457031 -2.425781 33.496094 0 39.097656 0 C 47.960938 0 58.128906 -5.503906 64.753906 -24.914062 C 64.941406 -25.472656 65.035156 -26.03125 65.035156 -26.59375 C 65.035156 -29.578125 62.234375 -31.351562 59.34375 -31.351562 C 56.917969 -31.351562 54.398438 -30.046875 53.464844 -27.058594 Z M 53.464844 -27.058594 "></path></g></g></g><g fill="rgb(0%, 0%, 0%)" fill-opacity="1"><g transform="translate(198.648604, 245.421092)"><g><path d="M 59.34375 -31.351562 C 56.824219 -31.351562 54.210938 -30.046875 53.371094 -27.058594 C 49.171875 -15.863281 44.132812 -11.105469 39.9375 -11.105469 C 38.070312 -11.105469 37.042969 -12.410156 37.042969 -13.902344 C 37.042969 -14.460938 37.136719 -15.023438 37.507812 -16.140625 L 56.542969 -71.101562 C 56.917969 -72.21875 57.382812 -73.804688 57.382812 -74.832031 C 57.382812 -78.84375 54.117188 -80.992188 50.851562 -80.992188 C 47.960938 -80.992188 45.253906 -78.84375 43.574219 -73.992188 L 35.082031 -49.917969 C 32.285156 -53 28.179688 -54.773438 23.792969 -54.773438 C 17.726562 -54.773438 11.195312 -51.414062 8.675781 -44.320312 L -0.1875 -19.128906 C -0.839844 -17.355469 -1.121094 -15.488281 -1.121094 -13.808594 C -1.121094 -5.597656 5.503906 0 13.53125 0 C 17.914062 0 22.765625 -1.492188 26.5 -5.132812 C 29.390625 -1.960938 33.871094 0 38.535156 0 C 47.773438 0 58.410156 -6.625 64.660156 -24.914062 C 64.847656 -25.566406 65.035156 -26.21875 65.035156 -26.777344 C 65.035156 -29.671875 62.234375 -31.351562 59.34375 -31.351562 Z M 15.582031 -14.371094 C 13.808594 -14.835938 13.34375 -16.234375 13.34375 -17.726562 C 13.34375 -18.941406 13.621094 -20.0625 13.902344 -20.902344 L 19.222656 -36.484375 C 21.085938 -41.988281 23.605469 -42.921875 25.101562 -42.921875 C 26.871094 -42.921875 28.832031 -41.148438 28.832031 -37.976562 C 28.832031 -36.578125 28.550781 -34.804688 27.710938 -32.472656 L 23.886719 -21.742188 C 21.085938 -14.835938 17.355469 -13.996094 15.582031 -14.371094 Z M 15.582031 -14.371094 "></path></g></g></g><g fill="rgb(0%, 0%, 0%)" fill-opacity="1"><g transform="translate(248.75326, 245.421092)"><g><path d="M 47.214844 -26.3125 C 43.109375 -15.488281 33.3125 -11.105469 25.378906 -11.105469 C 18.566406 -11.105469 14.277344 -14.371094 14.277344 -18.660156 C 14.277344 -19.5 14.371094 -20.339844 14.742188 -21.273438 L 15.488281 -23.046875 C 18.195312 -21.367188 21.554688 -20.246094 25.285156 -20.246094 C 33.777344 -20.246094 41.242188 -25.566406 43.761719 -33.964844 C 44.226562 -35.738281 44.507812 -37.507812 44.507812 -39.097656 C 44.507812 -47.960938 37.507812 -54.773438 26.964844 -54.773438 C 18.660156 -54.773438 10.542969 -49.917969 7.277344 -40.589844 L 1.773438 -24.632812 C 1.027344 -22.394531 0.558594 -20.15625 0.558594 -18.007812 C 0.558594 -6.90625 11.011719 0 24.632812 0 C 37.601562 0 52.34375 -6.34375 58.503906 -24.167969 C 58.785156 -24.914062 58.878906 -25.566406 58.878906 -26.125 C 58.878906 -29.019531 56.265625 -30.605469 53.464844 -30.605469 C 50.851562 -30.605469 48.054688 -29.207031 47.214844 -26.3125 Z M 26.6875 -43.761719 C 29.296875 -43.761719 30.976562 -41.613281 30.976562 -38.910156 C 30.976562 -38.164062 30.886719 -37.417969 30.605469 -36.667969 C 29.671875 -33.589844 26.871094 -32.472656 24.074219 -32.472656 C 22.300781 -32.472656 20.527344 -32.84375 19.222656 -33.589844 L 21.179688 -39.1875 C 22.207031 -42.082031 24.539062 -43.761719 26.6875 -43.761719 Z M 26.6875 -43.761719 "></path></g></g></g><g fill="rgb(0%, 0%, 0%)" fill-opacity="1"><g transform="translate(292.979705, 245.421092)"><g><path d="M 19.96875 -15.300781 C 15.675781 -15.300781 12.316406 -11.945312 12.316406 -7.652344 C 12.316406 -3.453125 15.675781 0 19.96875 0 C 24.167969 0 27.617188 -3.453125 27.617188 -7.652344 C 27.617188 -11.945312 24.167969 -15.300781 19.96875 -15.300781 Z M 19.96875 -15.300781 "></path></g></g></g><g clip-path="url(#id1)"><g clip-path="url(#id2)"><g clip-path="url(#id3)"><path fill="rgb(0%, 0%, 0%)" d="M 115.132812 131.171875 L 76.675781 130.480469 L 50.027344 158.222656 L 58.726562 158.378906 C 58.738281 158.40625 58.738281 158.429688 58.75 158.457031 L 68.089844 181.4375 C 67.449219 182.167969 67.265625 183.308594 67.699219 184.375 C 67.953125 184.996094 68.367188 185.480469 68.949219 185.824219 C 68.792969 190.398438 71.058594 194.132812 71.167969 194.308594 C 71.273438 194.472656 71.417969 194.585938 71.601562 194.644531 C 71.789062 194.707031 71.972656 194.699219 72.15625 194.625 L 72.277344 194.5625 C 72.386719 194.492188 72.46875 194.402344 72.53125 194.292969 C 72.765625 194.496094 73.074219 194.582031 73.359375 194.464844 L 73.363281 194.464844 C 73.613281 194.6875 73.894531 194.734375 74.203125 194.609375 L 74.210938 194.605469 C 74.542969 194.46875 74.710938 194.21875 74.710938 193.863281 L 74.722656 193.855469 C 74.792969 193.847656 74.859375 193.832031 74.925781 193.804688 C 75.167969 193.707031 75.300781 193.488281 75.363281 193.238281 C 75.519531 193.3125 75.6875 193.335938 75.859375 193.300781 L 76 193.257812 C 76.183594 193.1875 76.320312 193.0625 76.410156 192.890625 C 76.503906 192.71875 76.527344 192.539062 76.488281 192.347656 C 76.445312 192.148438 75.515625 187.863281 72.242188 184.671875 C 72.523438 183.929688 72.507812 183.195312 72.199219 182.46875 C 71.722656 181.316406 70.660156 180.636719 69.617188 180.683594 L 60.5625 158.402344 L 69.167969 158.558594 L 74.507812 171.414062 C 74.507812 171.414062 79.550781 164.289062 88.980469 160.371094 C 98.121094 156.570312 107.101562 157.871094 107.101562 157.871094 L 101.867188 144.988281 Z M 115.132812 131.171875 " fill-opacity="1" fill-rule="nonzero"></path></g></g></g></svg>